HIERARCHY
ROOT Hips
{
  OFFSET 5.84602e-005 68.8428 3.50346
  CHANNELS 6 Xposition Yposition Zposition Zrotation Xrotation Yrotation
  JOINT Spine
  {
    OFFSET 0 8.597 -4.6522
    CHANNELS 3 Zrotation Xrotation Yrotation
    JOINT Spine1
    {
      OFFSET 0 7.8454 0.4098
      CHANNELS 3 Zrotation Xrotation Yrotation
      JOINT Spine2
      {
        OFFSET 0 9.7078 -2.1609
        CHANNELS 3 Zrotation Xrotation Yrotation
        JOINT Neck
        {
          OFFSET 0 21.8761 -0.4549
          CHANNELS 3 Zrotation Xrotation Yrotation
          JOINT Head
          {
            OFFSET 0 12.3537 3.3602
            CHANNELS 3 Zrotation Xrotation Yrotation
            End Site
            {
              OFFSET 0.0001 18.9506 0.5657
            }
          }
        }
        JOINT LeftShoulder
        {
          OFFSET 2.2086 21.1115 7.2329
          CHANNELS 3 Zrotation Xrotation Yrotation
          JOINT LeftArm
          {
            OFFSET 13.1193 3.0282 -4.8998
            CHANNELS 3 Zrotation Xrotation Yrotation
            JOINT LeftForeArm
            {
              OFFSET 27.4081 -0.0973053 -0.2375
              CHANNELS 3 Zrotation Xrotation Yrotation
              JOINT LeftHand
              {
                OFFSET 22.8641 0.0662994 -0.1369
                CHANNELS 3 Zrotation Xrotation Yrotation
                JOINT LeftHandIndex1
                {
                  OFFSET 8.8614 0.775009 2.4612
                  CHANNELS 3 Zrotation Xrotation Yrotation
                  JOINT LeftHandIndex2
                  {
                    OFFSET 3.3146 -0.808304 0.5841
                    CHANNELS 3 Zrotation Xrotation Yrotation
                    JOINT LeftHandIndex3
                    {
                      OFFSET 2.2628 -0.552002 0.3989
                      CHANNELS 3 Zrotation Xrotation Yrotation
                      End Site
                      {
                        OFFSET 1.6102 -0.4807 0.2612
                      }
                    }
                  }
                }
                JOINT LeftHandMiddle1
                {
                  OFFSET 8.9937 0.895004 0.2143
                  CHANNELS 3 Zrotation Xrotation Yrotation
                  JOINT LeftHandMiddle2
                  {
                    OFFSET 4.0984 0.0113983 -0.0242
                    CHANNELS 3 Zrotation Xrotation Yrotation
                    JOINT LeftHandMiddle3
                    {
                      OFFSET 2.2716 0.00689697 -0.0138001
                      CHANNELS 3 Zrotation Xrotation Yrotation
                      End Site
                      {
                        OFFSET 2.0404 -0.1441 0.0027
                      }
                    }
                  }
                }
                JOINT LeftHandRing1
                {
                  OFFSET 8.5234 0.597198 -2.0164
                  CHANNELS 3 Zrotation Xrotation Yrotation
                  JOINT LeftHandRing2
                  {
                    OFFSET 3.7188 -0.188293 -0.2328
                    CHANNELS 3 Zrotation Xrotation Yrotation
                    JOINT LeftHandRing3
                    {
                      OFFSET 2.1191 -0.106598 -0.1332
                      CHANNELS 3 Zrotation Xrotation Yrotation
                      End Site
                      {
                        OFFSET 1.8737 -0.2304 -0.0886
                      }
                    }
                  }
                }
                JOINT LeftHandPinky1
                {
                  OFFSET 7.9094 -0.601089 -3.4825
                  CHANNELS 3 Zrotation Xrotation Yrotation
                  JOINT LeftHandPinky2
                  {
                    OFFSET 2.2874 -0.477005 -0.6314
                    CHANNELS 3 Zrotation Xrotation Yrotation
                    JOINT LeftHandPinky3
                    {
                      OFFSET 1.6774 -0.349396 -0.4633
                      CHANNELS 3 Zrotation Xrotation Yrotation
                      End Site
                      {
                        OFFSET 1.4888 -0.4091 -0.3416
                      }
                    }
                  }
                }
                JOINT LeftHandThumb1
                {
                  OFFSET 1.833 -1.3875 1.3896
                  CHANNELS 3 Zrotation Xrotation Yrotation
                  JOINT LeftHandThumb2
                  {
                    OFFSET 3.4129 -1.121 2.5732
                    CHANNELS 3 Zrotation Xrotation Yrotation
                    JOINT LeftHandThumb3
                    {
                      OFFSET 2.2474 -0.804199 1.6192
                      CHANNELS 3 Zrotation Xrotation Yrotation
                      End Site
                      {
                        OFFSET 1.6527 -0.5689 1.1317
                      }
                    }
                  }
                }
              }
            }
          }
        }
        JOINT RightShoulder
        {
          OFFSET -2.2086 21.1115 7.2329
          CHANNELS 3 Zrotation Xrotation Yrotation
          JOINT RightArm
          {
            OFFSET -13.1216 3.0287 -4.9007
            CHANNELS 3 Zrotation Xrotation Yrotation
            JOINT RightForeArm
            {
              OFFSET -27.4081 -0.0973053 -0.2375
              CHANNELS 3 Zrotation Xrotation Yrotation
              JOINT RightHand
              {
                OFFSET -22.8641 0.0664063 -0.1369
                CHANNELS 3 Zrotation Xrotation Yrotation
                JOINT RightHandIndex1
                {
                  OFFSET -8.8614 0.774994 2.4612
                  CHANNELS 3 Zrotation Xrotation Yrotation
                  JOINT RightHandIndex2
                  {
                    OFFSET -3.3146 -0.808304 0.5841
                    CHANNELS 3 Zrotation Xrotation Yrotation
                    JOINT RightHandIndex3
                    {
                      OFFSET -2.2628 -0.552002 0.3989
                      CHANNELS 3 Zrotation Xrotation Yrotation
                      End Site
                      {
                        OFFSET -1.6102 -0.4807 0.2612
                      }
                    }
                  }
                }
                JOINT RightHandMiddle1
                {
                  OFFSET -8.9937 0.894989 0.2143
                  CHANNELS 3 Zrotation Xrotation Yrotation
                  JOINT RightHandMiddle2
                  {
                    OFFSET -4.0984 0.0113983 -0.0242
                    CHANNELS 3 Zrotation Xrotation Yrotation
                    JOINT RightHandMiddle3
                    {
                      OFFSET -2.2716 0.00691223 -0.0138001
                      CHANNELS 3 Zrotation Xrotation Yrotation
                      End Site
                      {
                        OFFSET -2.0404 -0.1441 0.0027
                      }
                    }
                  }
                }
                JOINT RightHandRing1
                {
                  OFFSET -8.5234 0.597198 -2.0164
                  CHANNELS 3 Zrotation Xrotation Yrotation
                  JOINT RightHandRing2
                  {
                    OFFSET -3.7188 -0.188309 -0.2328
                    CHANNELS 3 Zrotation Xrotation Yrotation
                    JOINT RightHandRing3
                    {
                      OFFSET -2.1191 -0.106598 -0.1332
                      CHANNELS 3 Zrotation Xrotation Yrotation
                      End Site
                      {
                        OFFSET -1.8737 -0.2304 -0.0886
                      }
                    }
                  }
                }
                JOINT RightHandPinky1
                {
                  OFFSET -7.9094 -0.601105 -3.4825
                  CHANNELS 3 Zrotation Xrotation Yrotation
                  JOINT RightHandPinky2
                  {
                    OFFSET -2.2874 -0.477005 -0.6314
                    CHANNELS 3 Zrotation Xrotation Yrotation
                    JOINT RightHandPinky3
                    {
                      OFFSET -1.6774 -0.349396 -0.4633
                      CHANNELS 3 Zrotation Xrotation Yrotation
                      End Site
                      {
                        OFFSET -1.4888 -0.4091 -0.3416
                      }
                    }
                  }
                }
                JOINT RightHandThumb1
                {
                  OFFSET -1.833 -1.38751 1.3896
                  CHANNELS 3 Zrotation Xrotation Yrotation
                  JOINT RightHandThumb2
                  {
                    OFFSET -3.41299 -1.12099 2.5732
                    CHANNELS 3 Zrotation Xrotation Yrotation
                    JOINT RightHandThumb3
                    {
                      OFFSET -2.24741 -0.804108 1.6192
                      CHANNELS 3 Zrotation Xrotation Yrotation
                      End Site
                      {
                        OFFSET -1.6527 -0.5689 1.1317
                      }
                    }
                  }
                }
              }
            }
          }
        }
      }
    }
  }
  JOINT RightUpLeg
  {
    OFFSET -9.1966 3.8861 -0.7581
    CHANNELS 3 Zrotation Xrotation Yrotation
    JOINT RightLeg
    {
      OFFSET -0.7359 -41.0265 0
      CHANNELS 3 Zrotation Xrotation Yrotation
      JOINT RightFoot
      {
        OFFSET 0 -40.2855 0
        CHANNELS 3 Zrotation Xrotation Yrotation
        JOINT RightToeBase
        {
          OFFSET 0 -5.6122 11.7359
          CHANNELS 3 Zrotation Xrotation Yrotation
          End Site
          {
            OFFSET 0 0 7.8731
          }
        }
      }
    }
  }
  JOINT LeftUpLeg
  {
    OFFSET 9.1965 3.8864 -0.7581
    CHANNELS 3 Zrotation Xrotation Yrotation
    JOINT LeftLeg
    {
      OFFSET 0.7359 -41.0268 0
      CHANNELS 3 Zrotation Xrotation Yrotation
      JOINT LeftFoot
      {
        OFFSET 0 -40.2855 0
        CHANNELS 3 Zrotation Xrotation Yrotation
        JOINT LeftToeBase
        {
          OFFSET 0 -5.6122 11.7359
          CHANNELS 3 Zrotation Xrotation Yrotation
          End Site
          {
            OFFSET 0 0 7.8731
          }
        }
      }
    }
  }
}
MOTION
Frames:	4
Frame Time:	0.0333333
22.4284 51.3446 -79.973 -7.00927 2.97739 112.364 2.98183 2.80615 -0.0650786 5.9776 5.60509 -0.27688 5.97761 5.60508 -0.276904 10.5027 17.7154 -39.2313 5.06493 -9.29852 0.819473 3.83622e-005 3.29898e-005 -1.69682e-005 -93.4723 1.28719 -50.0183 -18.5801 9.04001 -129.403 24.9967 -0.00294775 -12.0013 -6.36111e-015 -2.38542e-015 -3.18055e-015 -3.18055e-015 -7.95139e-016 -3.18055e-015 -3.18055e-015 -7.95139e-016 -5.1684e-015 -6.36111e-015 -2.38542e-015 -3.18055e-015 -0.0145251 -8.59266e-005 -4.60869e-006 0 0 -1.19271e-015 -6.36111e-015 -2.38542e-015 -3.18055e-015 -0.0186472 -0.00116488 6.00845e-005 6.36111e-015 1.35174e-014 -1.59028e-015 -6.36111e-015 -2.38542e-015 -3.18055e-015 -0.0121807 -0.00322401 0.000675134 -6.36111e-015 1.19271e-014 -1.98785e-015 -6.36111e-015 -2.38542e-015 -3.18055e-015 -3.18055e-015 -7.95139e-016 -3.18055e-015 -3.18055e-015 -7.95139e-016 -5.1684e-015 3.83622e-005 3.29898e-005 -1.69682e-005 77.4739 -0.0922054 56.5124 1.56266e-005 -1.05877e-005 93.9788 -4.26346 -1.96273 -4.53597 1.59028e-015 0 -2.38542e-015 4.69432e-007 -2.57081e-007 -6.59036e-007 -4.69432e-007 2.57081e-007 6.59036e-007 1.59028e-015 0 -2.38542e-015 0.0149803 -8.85408e-005 3.14205e-007 -4.69444e-007 2.57167e-007 6.59003e-007 1.59028e-015 0 -2.38542e-015 0.0189025 -0.00118964 -5.50212e-005 -4.69441e-007 2.57191e-007 6.58999e-007 1.59028e-015 0 -2.38542e-015 0.0122983 -0.00325952 -0.000676136 -4.69425e-007 2.57152e-007 6.59023e-007 1.59028e-015 0 -2.38542e-015 4.69432e-007 -2.57081e-007 -6.59036e-007 -4.69432e-007 2.57081e-007 6.59036e-007 -15.1931 -28.2406 -34.6821 172.537 78.7861 -174.535 -3.04716 13.7052 3.50906 1.59028e-015 -2.38542e-015 3.18055e-015 -10.3596 -11.8147 -1.16789 7.13928 37.6402 -14.0556 3.77371 19.7873 -11.6596 -1.05411e-006 -1.12845e-006 -6.10678e-007 
22.4287 51.3445 -79.9729 -7.00927 2.97739 112.364 2.98183 2.80615 -0.0650786 5.9776 5.60509 -0.27688 5.97761 5.60508 -0.276904 10.5028 17.7154 -39.2313 5.06428 -9.25386 0.815474 3.83622e-005 3.29898e-005 -1.69682e-005 -93.4723 1.28719 -50.0183 -18.5801 9.04001 -129.403 24.9967 -0.00294775 -12.0013 -6.36111e-015 -2.38542e-015 -3.18055e-015 -3.18055e-015 -7.95139e-016 -3.18055e-015 -3.18055e-015 -7.95139e-016 -5.1684e-015 -6.36111e-015 -2.38542e-015 -3.18055e-015 -0.0145251 -8.59266e-005 -4.60869e-006 0 0 -1.19271e-015 -6.36111e-015 -2.38542e-015 -3.18055e-015 -0.0186472 -0.00116488 6.00845e-005 6.36111e-015 1.35174e-014 -1.59028e-015 -6.36111e-015 -2.38542e-015 -3.18055e-015 -0.0121807 -0.00322401 0.000675134 -6.36111e-015 1.19271e-014 -1.98785e-015 -6.36111e-015 -2.38542e-015 -3.18055e-015 -3.18055e-015 -7.95139e-016 -3.18055e-015 -3.18055e-015 -7.95139e-016 -5.1684e-015 3.83622e-005 3.29898e-005 -1.69682e-005 77.4615 -0.0919384 56.019 4.41174e-007 -1.21616e-005 94.1551 -4.25704 -1.91364 -4.54748 -3.45728e-006 -2.99792e-006 1.26867e-006 4.77083e-015 0 3.26007e-014 -2.51604e-006 -3.50927e-006 -4.92657e-008 -3.45728e-006 -2.99792e-006 1.26867e-006 0.0151051 -9.98926e-005 5.56971e-006 -2.51675e-006 -3.50927e-006 -4.88012e-008 -3.45728e-006 -2.99792e-006 1.26867e-006 0.0189898 -0.00119602 -6.30854e-005 -2.51693e-006 -3.50923e-006 -4.8655e-008 -3.45728e-006 -2.99792e-006 1.26867e-006 0.0123465 -0.00327462 -0.000678714 -2.5166e-006 -3.50914e-006 -4.8784e-008 -3.45728e-006 -2.99792e-006 1.26867e-006 4.77083e-015 0 3.26007e-014 -2.51604e-006 -3.50927e-006 -4.92657e-008 -15.181 -28.1959 -34.6977 172.414 78.7459 -174.415 -3.05005 13.5687 3.5067 -8.6936e-007 -1.16155e-008 -6.9802e-007 -10.3594 -11.8146 -1.16792 7.13932 37.6404 -14.0557 3.77354 19.787 -11.6596 -9.54166e-015 9.54166e-015 -7.95139e-015 
22.429 51.3445 -79.9727 -7.00927 2.97739 112.364 2.98183 2.80615 -0.0650786 5.9776 5.60509 -0.27688 5.97761 5.60508 -0.276904 10.5028 17.7154 -39.2313 5.06364 -9.20919 0.811451 3.83622e-005 3.29898e-005 -1.69682e-005 -93.4723 1.28719 -50.0183 -18.5801 9.04001 -129.403 24.9967 -0.00294775 -12.0013 -6.36111e-015 -2.38542e-015 -3.18055e-015 -3.18055e-015 -7.95139e-016 -3.18055e-015 -3.18055e-015 -7.95139e-016 -5.1684e-015 -6.36111e-015 -2.38542e-015 -3.18055e-015 -0.0145251 -8.59266e-005 -4.60869e-006 0 0 -1.19271e-015 -6.36111e-015 -2.38542e-015 -3.18055e-015 -0.0186472 -0.00116488 6.00845e-005 6.36111e-015 1.35174e-014 -1.59028e-015 -6.36111e-015 -2.38542e-015 -3.18055e-015 -0.0121807 -0.00322401 0.000675134 -6.36111e-015 1.19271e-014 -1.98785e-015 -6.36111e-015 -2.38542e-015 -3.18055e-015 -3.18055e-015 -7.95139e-016 -3.18055e-015 -3.18055e-015 -7.95139e-016 -5.1684e-015 3.83622e-005 3.29898e-005 -1.69682e-005 77.4492 -0.0915799 55.5258 -1.74323e-007 4.60969e-006 94.3314 -4.25065 -1.86456 -4.55901 1.59028e-015 -3.18055e-015 7.95139e-016 1.59028e-015 6.36111e-015 3.97569e-015 -9.43601e-007 5.08548e-007 1.31779e-006 1.59028e-015 -3.18055e-015 7.95139e-016 0.0148798 -8.9257e-005 -3.80251e-006 -9.43623e-007 5.08719e-007 1.31772e-006 1.59028e-015 -3.18055e-015 7.95139e-016 0.0190014 -0.0011879 -6.11422e-005 -9.43617e-007 5.08768e-007 1.31771e-006 1.59028e-015 -3.18055e-015 7.95139e-016 0.0122154 -0.00323825 -0.000670757 -9.43586e-007 5.08688e-007 1.31776e-006 1.59028e-015 -3.18055e-015 7.95139e-016 1.59028e-015 6.36111e-015 3.97569e-015 -9.43601e-007 5.08548e-007 1.31779e-006 -15.1689 -28.1511 -34.7132 172.292 78.7056 -174.296 -3.0529 13.4321 3.50432 8.7505e-007 5.03543e-009 6.97534e-007 -10.3592 -11.8145 -1.16793 7.13935 37.6405 -14.0558 3.77336 19.7867 -11.6595 7.02915e-007 3.31302e-007 7.2315e-007 
22.4294 51.3444 -79.9725 -7.00927 2.97739 112.364 2.98183 2.80615 -0.0650786 5.9776 5.60509 -0.27688 5.97761 5.60508 -0.276904 10.5027 17.7154 -39.2313 5.06298 -9.16455 0.80745 3.83622e-005 3.29898e-005 -1.69682e-005 -93.4723 1.28719 -50.0183 -18.5801 9.04001 -129.403 24.9967 -0.00294775 -12.0013 -6.36111e-015 -2.38542e-015 -3.18055e-015 -3.18055e-015 -7.95139e-016 -3.18055e-015 -3.18055e-015 -7.95139e-016 -5.1684e-015 -6.36111e-015 -2.38542e-015 -3.18055e-015 -0.0145251 -8.59266e-005 -4.60869e-006 0 0 -1.19271e-015 -6.36111e-015 -2.38542e-015 -3.18055e-015 -0.0186472 -0.00116488 6.00845e-005 6.36111e-015 1.35174e-014 -1.59028e-015 -6.36111e-015 -2.38542e-015 -3.18055e-015 -0.0121807 -0.00322401 0.000675134 -6.36111e-015 1.19271e-014 -1.98785e-015 -6.36111e-015 -2.38542e-015 -3.18055e-015 -3.18055e-015 -7.95139e-016 -3.18055e-015 -3.18055e-015 -7.95139e-016 -5.1684e-015 3.83622e-005 3.29898e-005 -1.69682e-005 77.4369 -0.0911199 55.0325 2.02825e-013 1.85489e-014 94.5076 -4.24422 -1.8155 -4.57052 9.45957e-007 -5.05739e-007 -1.31763e-006 1.41894e-006 -7.58608e-007 -1.97644e-006 9.45957e-007 -5.05739e-007 -1.31763e-006 9.45957e-007 -5.05739e-007 -1.31763e-006 0.0149507 -8.99379e-005 1.30554e-006 9.45978e-007 -5.05911e-007 -1.31756e-006 9.45957e-007 -5.05739e-007 -1.31763e-006 0.0190686 -0.00119551 -6.42713e-005 9.45972e-007 -5.05959e-007 -1.31755e-006 9.45957e-007 -5.05739e-007 -1.31763e-006 0.0122921 -0.00325646 -0.00068052 9.45941e-007 -5.05879e-007 -1.3176e-006 9.45957e-007 -5.05739e-007 -1.31763e-006 1.41894e-006 -7.58608e-007 -1.97644e-006 9.45957e-007 -5.05739e-007 -1.31763e-006 -15.1567 -28.1067 -34.7287 172.171 78.6649 -174.177 -3.05578 13.2955 3.50192 1.59028e-015 -4.96962e-016 -7.95139e-016 -10.359 -11.8144 -1.16792 7.13941 37.6407 -14.056 3.77322 19.7863 -11.6595 -2.10823e-006 -2.25691e-006 -1.22136e-006 
